<svg width="18" height="12" viewBox="0 0 18 12" fill="none" xmlns="http://www.w3.org/2000/svg">
<path d="M17.8416 5.54375C16.2411 2.23719 13.0725 0 9.44432 0C5.81618 0 2.64668 2.23875 1.04703 5.54406C0.979513 5.68547 0.944336 5.8417 0.944336 6.00016C0.944336 6.15861 0.979513 6.31484 1.04703 6.45625C2.64757 9.76281 5.81618 12 9.44432 12C13.0725 12 16.242 9.76125 17.8416 6.45594C17.9091 6.31453 17.9443 6.1583 17.9443 5.99984C17.9443 5.84139 17.9091 5.68516 17.8416 5.54375ZM9.44432 10.5C8.60375 10.5 7.78205 10.2361 7.08315 9.74161C6.38424 9.24715 5.8395 8.54434 5.51783 7.72208C5.19616 6.89981 5.112 5.99501 5.27598 5.12209C5.43997 4.24918 5.84474 3.44736 6.43912 2.81802C7.03349 2.18868 7.79077 1.7601 8.61519 1.58647C9.4396 1.41283 10.2941 1.50195 11.0707 1.84254C11.8473 2.18314 12.5111 2.75991 12.9781 3.49993C13.4451 4.23995 13.6943 5.10998 13.6943 6C13.6946 6.59103 13.5848 7.17632 13.3714 7.72242C13.1579 8.26851 12.8448 8.7647 12.4501 9.18262C12.0554 9.60054 11.5868 9.932 11.071 10.158C10.5553 10.3841 10.0025 10.5003 9.44432 10.5ZM9.44432 3C9.19142 3.00374 8.94016 3.04358 8.69732 3.11844C8.89749 3.40646 8.99355 3.7609 8.96807 4.11748C8.9426 4.47406 8.79727 4.80917 8.55846 5.06203C8.31965 5.31489 8.00316 5.46876 7.66639 5.49574C7.32962 5.52271 6.99487 5.42101 6.72284 5.20906C6.56794 5.81331 6.59591 6.45377 6.80279 7.04031C7.00968 7.62685 7.38507 8.12993 7.87613 8.47874C8.36719 8.82754 8.9492 9.00452 9.54023 8.98475C10.1313 8.96498 10.7016 8.74946 11.1708 8.36853C11.6401 7.9876 11.9848 7.46044 12.1563 6.86125C12.3278 6.26205 12.3175 5.62099 12.1269 5.0283C11.9363 4.43561 11.575 3.92114 11.0937 3.55728C10.6125 3.19343 10.0356 2.99853 9.44432 3Z" fill="#D6CCCC"/>
</svg>
