<svg width="17" height="17" viewBox="0 0 17 17" fill="none" xmlns="http://www.w3.org/2000/svg">
<g clip-path="url(#clip0_6_364)">
<path d="M11.1562 0.53125V1.59375" stroke="#D6CCCC" stroke-width="2" stroke-linecap="round" stroke-linejoin="round"/>
<path d="M13.8125 1.39586L13.2812 2.26644" stroke="#D6CCCC" stroke-width="2" stroke-linecap="round" stroke-linejoin="round"/>
<path d="M15.6494 3.71875L14.6506 4.04082" stroke="#D6CCCC" stroke-width="2" stroke-linecap="round" stroke-linejoin="round"/>
<path d="M5.54746 6.57422L5.16696 5.91016C5.00845 5.63558 4.74736 5.43523 4.44113 5.35316C4.13489 5.27109 3.8086 5.31403 3.53403 5.47254C3.25946 5.63105 3.0591 5.89214 2.97703 6.19837C2.89496 6.5046 2.9379 6.8309 3.09641 7.10547L4.35813 9.2909" stroke="#D6CCCC" stroke-width="2" stroke-linecap="round" stroke-linejoin="round"/>
<path d="M7.27479 9.5625L5.54823 6.57422C5.46632 6.43817 5.41234 6.28716 5.38944 6.13001C5.36655 5.97287 5.37519 5.81273 5.41488 5.65897C5.45457 5.5052 5.5245 5.36088 5.62058 5.23445C5.71667 5.10801 5.83699 5.00199 5.97451 4.92257C6.11203 4.84315 6.264 4.79194 6.42154 4.77191C6.57908 4.75189 6.73902 4.76345 6.89204 4.80594C7.04506 4.84842 7.18808 4.92097 7.31274 5.01935C7.4374 5.11773 7.54121 5.23996 7.61811 5.37891L10.0386 9.5625" stroke="#D6CCCC" stroke-width="2" stroke-linecap="round" stroke-linejoin="round"/>
<path d="M6.77336 3.91797L6.39352 3.25391C6.31503 3.11795 6.21054 2.99879 6.086 2.90322C5.96146 2.80765 5.81932 2.73754 5.66768 2.69691C5.51605 2.65627 5.3579 2.6459 5.20226 2.66638C5.04662 2.68687 4.89654 2.7378 4.76059 2.81629C4.62463 2.89478 4.50547 2.99927 4.4099 3.12381C4.31433 3.24835 4.24422 3.39049 4.20359 3.54212C4.16295 3.69375 4.15258 3.8519 4.17306 4.00754C4.19355 4.16318 4.24448 4.31327 4.32297 4.44922L5.16699 5.91016" stroke="#D6CCCC" stroke-width="2" stroke-linecap="round" stroke-linejoin="round"/>
<path d="M7.61735 5.37891L6.77332 3.91797C6.69141 3.78192 6.63743 3.63091 6.61454 3.47376C6.59164 3.31662 6.60029 3.15648 6.63998 3.00272C6.67966 2.84895 6.74959 2.70463 6.84568 2.5782C6.94177 2.45176 7.06209 2.34574 7.19961 2.26632C7.33713 2.1869 7.4891 2.13569 7.64664 2.11566C7.80417 2.09564 7.96412 2.1072 8.11714 2.14969C8.27016 2.19217 8.41317 2.26472 8.53784 2.3631C8.6625 2.46148 8.76631 2.58371 8.84321 2.72266L11.3002 6.97266" stroke="#D6CCCC" stroke-width="2" stroke-linecap="round" stroke-linejoin="round"/>
<path d="M13.2148 12.4684C13.9402 11.7218 14.402 10.7589 14.5303 9.72586C14.6585 8.69285 14.4461 7.6462 13.9254 6.74488L12.5249 4.31641C12.4464 4.18045 12.3419 4.06129 12.2173 3.96572C12.0928 3.87015 11.9507 3.80004 11.799 3.75941C11.4928 3.67734 11.1665 3.72028 10.8919 3.87879C10.6174 4.0373 10.417 4.29839 10.3349 4.60462C10.2529 4.91085 10.2958 5.23715 10.4543 5.51172" stroke="#D6CCCC" stroke-width="2" stroke-linecap="round" stroke-linejoin="round"/>
<path d="M5.43279 11.1563L4.09005 8.83203C3.93154 8.55746 3.67046 8.3571 3.36422 8.27503C3.05799 8.19296 2.73169 8.23591 2.45712 8.39442C2.18255 8.55292 1.98219 8.81401 1.90012 9.12025C1.81805 9.42648 1.861 9.75277 2.01951 10.0273L2.65634 11.129L4.35833 14.0781C4.99237 15.1763 6.03669 15.9777 7.26156 16.3059C8.48643 16.6341 9.79152 16.4623 10.8897 15.8283C11.9879 15.1942 12.7893 14.1499 13.1175 12.925C13.4457 11.7002 13.2739 10.3951 12.6399 9.29688L11.2985 6.97266C11.2237 6.82981 11.1209 6.70356 10.9961 6.60149C10.8713 6.49942 10.7272 6.42365 10.5723 6.37873C10.4175 6.33382 10.2552 6.32068 10.0952 6.34012C9.93514 6.35956 9.78069 6.41117 9.64112 6.49185C9.50155 6.57253 9.37974 6.6806 9.28302 6.80958C9.1863 6.93855 9.11667 7.08575 9.07831 7.24234C9.03996 7.39892 9.03368 7.56164 9.05984 7.72071C9.086 7.87979 9.14408 8.03192 9.23056 8.16797" stroke="#D6CCCC" stroke-width="2" stroke-linecap="round" stroke-linejoin="round"/>
</g>
<defs>
<clipPath id="clip0_6_364">
<rect width="17" height="17" fill="white"/>
</clipPath>
</defs>
</svg>
