<svg width="18" height="20" viewBox="0 0 18 20" fill="none" xmlns="http://www.w3.org/2000/svg">
<path fill-rule="evenodd" clip-rule="evenodd" d="M5.94862 0.713834C5.94862 0.524513 6.02382 0.342947 6.15769 0.209077C6.29156 0.0752072 6.47313 0 6.66245 0H10.4696C10.6589 3.98963e-09 10.8405 0.0752072 10.9743 0.209077C11.1082 0.342947 11.1834 0.524513 11.1834 0.713834C11.1834 0.903154 11.1082 1.08472 10.9743 1.21859C10.8405 1.35246 10.6589 1.42767 10.4696 1.42767H6.66245C6.47313 1.42767 6.29156 1.35246 6.15769 1.21859C6.02382 1.08472 5.94862 0.903154 5.94862 0.713834ZM17.132 11.1834C17.132 12.3083 16.9104 13.4222 16.48 14.4615C16.0495 15.5007 15.4185 16.4451 14.6231 17.2405C13.8277 18.0359 12.8834 18.6669 11.8441 19.0974C10.8048 19.5278 9.69091 19.7494 8.56601 19.7494C7.4411 19.7494 6.32721 19.5278 5.28794 19.0974C4.24866 18.6669 3.30435 18.0359 2.50893 17.2405C1.7135 16.4451 1.08253 15.5007 0.652048 14.4615C0.221566 13.4222 -1.67624e-08 12.3083 0 11.1834C3.38531e-08 8.91155 0.902487 6.73275 2.50893 5.12632C4.11536 3.51988 6.29416 2.61739 8.56601 2.61739C10.8379 2.61739 13.0166 3.51988 14.6231 5.12632C16.2295 6.73275 17.132 8.91155 17.132 11.1834ZM9.54253 8.5898C9.29888 8.42092 9.05003 8.25968 8.79634 8.1063C7.77508 7.48574 7.26493 7.17546 6.80712 7.51905C6.35027 7.86169 6.30839 8.58124 6.22463 10.0203C6.20179 10.4267 6.18656 10.8255 6.18656 11.1834C6.18656 11.5413 6.20179 11.9401 6.22463 12.3465C6.30839 13.7856 6.35027 14.5042 6.80712 14.8477C7.26493 15.1913 7.77603 14.8811 8.79634 14.2605C9.06093 14.0996 9.31696 13.9359 9.54253 13.777C9.79951 13.5962 10.0803 13.3792 10.363 13.1488C11.3861 12.3141 11.8972 11.8972 11.8972 11.1834C11.8972 10.4696 11.3861 10.0527 10.363 9.21798C10.0803 8.98765 9.80046 8.77064 9.54253 8.5898Z" fill="white"/>
</svg>
